<svg viewBox="0 0 15 15" fill="none" xmlns="http://www.w3.org/2000/svg">
<path d="M10.7071 7.41789C10.3166 7.02737 9.68342 7.02737 9.29289 7.41789C8.90237 7.80842 8.90237 8.44158 9.29289 8.83211L10.7071 7.41789ZM11.875 10L12.5821 10.7071C12.9726 10.3166 12.9726 9.68342 12.5821 9.29289L11.875 10ZM9.29289 11.1679C8.90237 11.5584 8.90237 12.1916 9.29289 12.5821C9.68342 12.9726 10.3166 12.9726 10.7071 12.5821L9.29289 11.1679ZM9.29289 8.83211L11.1679 10.7071L12.5821 9.29289L10.7071 7.41789L9.29289 8.83211ZM11.1679 9.29289L9.29289 11.1679L10.7071 12.5821L12.5821 10.7071L11.1679 9.29289Z"/>
<path d="M3.125 9C2.57272 9 2.125 9.44772 2.125 10C2.125 10.5523 2.57272 11 3.125 11V9ZM11.875 11C12.4273 11 12.875 10.5523 12.875 10C12.875 9.44772 12.4273 9 11.875 9V11ZM3.125 11H11.875V9H3.125V11Z"/>
<path d="M4.29289 7.58211C4.68342 7.97263 5.31658 7.97263 5.70711 7.58211C6.09763 7.19158 6.09763 6.55842 5.70711 6.16789L4.29289 7.58211ZM3.125 5L2.41789 4.29289C2.02737 4.68342 2.02737 5.31658 2.41789 5.70711L3.125 5ZM5.70711 3.83211C6.09763 3.44158 6.09763 2.80842 5.70711 2.41789C5.31658 2.02737 4.68342 2.02737 4.29289 2.41789L5.70711 3.83211ZM5.70711 6.16789L3.83211 4.29289L2.41789 5.70711L4.29289 7.58211L5.70711 6.16789ZM3.83211 5.70711L5.70711 3.83211L4.29289 2.41789L2.41789 4.29289L3.83211 5.70711Z"/>
<path d="M11.875 6C12.4273 6 12.875 5.55228 12.875 5C12.875 4.44772 12.4273 4 11.875 4L11.875 6ZM3.125 4C2.57272 4 2.125 4.44772 2.125 5C2.125 5.55229 2.57272 6 3.125 6L3.125 4ZM11.875 4L3.125 4L3.125 6L11.875 6L11.875 4Z"/>
</svg>
